<svg width="1436" height="252" viewBox="0 0 1436 252" fill="none" xmlns="http://www.w3.org/2000/svg">
<g clip-path="url(#clip0)">
<path d="M1242 41.6609C1396 -18.201 1436 4.04317 1436 4.04317V93.1212V237H-4C76 234.199 259.2 221.457 352 192.891C468 157.184 616 147.732 736 161.385C763.633 164.529 765.913 169.169 761.012 172.907C778.538 168.107 811.049 160.132 868 147.732C988.464 121.504 1032.67 111.393 1046.42 107.905C1044.89 107.931 1043.43 107.899 1042 107.824C1042 107.824 1060.75 104.269 1046.42 107.905C1066.37 107.556 1099 97.2475 1242 41.6609Z" fill="#E1A1ED" fill-opacity="0.2"/>
<path d="M190 56.6609C36 -3.20104 -4 19.0432 -4 19.0432V108.121V252H1436C1356 249.199 1172.8 236.457 1080 207.891C964 172.184 816 162.732 696 176.385C668.367 179.529 666.087 184.169 670.988 187.907C653.462 183.107 620.951 175.132 564 162.732C443.536 136.504 399.328 126.393 385.578 122.905C387.112 122.931 388.572 122.899 390 122.824C390 122.824 371.25 119.269 385.578 122.905C365.633 122.556 333.001 112.247 190 56.6609Z" fill="#E1A1ED" fill-opacity="0.2"/>
</g>
<defs>
<clipPath id="clip0">
<rect width="1436" height="252" fill="white"/>
</clipPath>
</defs>
</svg>
